<svg id="Group_15702" data-name="Group 15702" xmlns="http://www.w3.org/2000/svg" width="30" height="30" viewBox="0 0 30 30">
  <path id="Path_38533" data-name="Path 38533" d="M15,0A15,15,0,1,1,0,15,15,15,0,0,1,15,0Z" fill="#fff"/>
  <g id="Group_15697" data-name="Group 15697" transform="translate(5 5.274)">
    <g id="Group_15399" data-name="Group 15399">
      <circle id="Ellipse_3113" data-name="Ellipse 3113" cx="9.5" cy="9.5" r="9.5" transform="translate(0 -0.173)" fill="none"/>
      <path id="noun-message-line-4531567" d="M942.038,535.35v3.706h0a3.349,3.349,0,0,1-3.137,3.528v.877a1.09,1.09,0,0,1-1.1,1.082,1.108,1.108,0,0,1-.61-.182l-2.667-1.753H932.16a3.4,3.4,0,0,1-3.607-3.162,3.1,3.1,0,0,1,0-.39V535.35a3.382,3.382,0,0,1,3.211-3.552,3.544,3.544,0,0,1,.4,0h6.274a3.365,3.365,0,0,1,3.607,3.552Z" transform="translate(-925.672 -528.066)" fill="none" stroke="#1a2552" stroke-linecap="round" stroke-linejoin="round" stroke-width="1.5"/>
    </g>
  </g>
</svg>