<svg xmlns="http://www.w3.org/2000/svg" xmlns:xlink="http://www.w3.org/1999/xlink" width="40" height="40" viewBox="0 0 40 40">
  <defs>
    <linearGradient id="linear-gradient" x1="0.5" y1="0.005" x2="0.5" y2="1.005" gradientUnits="objectBoundingBox">
      <stop offset="0" stop-color="#e40334"/>
      <stop offset="1" stop-color="#5e0115"/>
    </linearGradient>
  </defs>
  <g id="Group_14603" data-name="Group 14603" transform="translate(0 0)">
    <circle id="Ellipse_640" data-name="Ellipse 640" cx="20" cy="20" r="20" transform="translate(0 0)" fill="url(#linear-gradient)"/>
    <g id="Group_8032" data-name="Group 8032" transform="translate(11.363 9.545)">
      <g id="Path_36217" data-name="Path 36217">
        <path id="Path_37795" data-name="Path 37795" d="M1294.7,542.794a1.739,1.739,0,0,0,.716.072c.827-.091,2.292-.7,2.434.624.162,1.513-1.421,2.636-1.054,4.2.253,1.075,2.17.714,2.831.355,1.042-.565,1.578-2.032,2.056-3.027a6.008,6.008,0,0,1,2.387-3.062,4.95,4.95,0,0,1,1.711-.525,9.047,9.047,0,0,1,1.395-.012v-8.558a9.58,9.58,0,0,1-1.553-.165c-.619-.137-.909-.765-1.382-1.124a3.48,3.48,0,0,0-1.419-.644,16.154,16.154,0,0,0-3.4-.206,17.341,17.341,0,0,0-3.491.38,3.937,3.937,0,0,0-2.251,1.161c-.844.885-.888,2.4-.992,3.536a16.666,16.666,0,0,0,.03,3.159,6.493,6.493,0,0,0,.636,2.652A2.535,2.535,0,0,0,1294.7,542.794Z" transform="translate(-1290.816 -528.908)" fill="none"/>
        <path id="Path_37796" data-name="Path 37796" d="M1297.877,548.228a3.719,3.719,0,0,0,1.572-.36c1.043-.565,1.578-2.032,2.057-3.027a6,6,0,0,1,2.387-3.062,4.938,4.938,0,0,1,1.711-.525,9,9,0,0,1,1.395-.011v-8.559a9.366,9.366,0,0,1-1.554-.165c-.618-.137-.91-.765-1.381-1.124a3.5,3.5,0,0,0-1.42-.643,16.145,16.145,0,0,0-3.4-.2,17.394,17.394,0,0,0-3.49.379,3.945,3.945,0,0,0-2.252,1.157c-.844.885-.888,2.4-.992,3.536a16.666,16.666,0,0,0,.032,3.16,6.475,6.475,0,0,0,.635,2.651,2.531,2.531,0,0,0,1.342,1.18,1.717,1.717,0,0,0,.716.071c.827-.091,2.292-.7,2.434.624.163,1.513-1.421,2.641-1.054,4.2.125.536.666.715,1.258.715m0,1.818a2.857,2.857,0,0,1-3.028-2.118,4.875,4.875,0,0,1,.639-3.442l-.051.005a3.543,3.543,0,0,1-1.469-.147,4.317,4.317,0,0,1-2.358-1.995,7.869,7.869,0,0,1-.866-3.307l-.007-.08a18.368,18.368,0,0,1-.034-3.5c.01-.106.019-.215.028-.327a6.743,6.743,0,0,1,1.46-4.3,5.764,5.764,0,0,1,3.19-1.681,19.187,19.187,0,0,1,3.855-.419l.186,0,.591,0a14.593,14.593,0,0,1,3,.245,5.3,5.3,0,0,1,2.15.976,4.988,4.988,0,0,1,.707.681c.042.045.092.1.134.146a10.216,10.216,0,0,0,1.085.093,1.818,1.818,0,0,1,1.726,1.815v8.559a1.819,1.819,0,0,1-2.127,1.792h-.022c-.29,0-.737.019-.875.027a3.148,3.148,0,0,0-1.048.323c-.667.354-1.035,1.067-1.581,2.2l-.02.042c-.063.131-.131.278-.2.435a6.771,6.771,0,0,1-2.627,3.4A5.512,5.512,0,0,1,1297.877,550.046Z" transform="translate(-1290.634 -528.728)" fill="#1a2552"/>
      </g>
      <path id="Path_36218" data-name="Path 36218" d="M1294.7,542.794a1.739,1.739,0,0,0,.716.072c.827-.091,2.292-.7,2.434.624.162,1.513-1.421,2.636-1.054,4.2.253,1.075,2.17.714,2.831.355,1.042-.565,1.578-2.032,2.056-3.027a6.008,6.008,0,0,1,2.387-3.062,4.95,4.95,0,0,1,1.711-.525,9.047,9.047,0,0,1,1.395-.012v-8.558a9.58,9.58,0,0,1-1.553-.165c-.619-.137-.909-.765-1.382-1.124a3.48,3.48,0,0,0-1.419-.644,16.154,16.154,0,0,0-3.4-.206,17.341,17.341,0,0,0-3.491.38,3.937,3.937,0,0,0-2.251,1.161c-.844.885-.888,2.4-.992,3.536a16.666,16.666,0,0,0,.03,3.159,6.493,6.493,0,0,0,.636,2.652A2.535,2.535,0,0,0,1294.7,542.794Z" transform="translate(-1290.816 -528.908)" fill="#fff"/>
      <path id="Path_36219" data-name="Path 36219" d="M1292.7,538.182a8.2,8.2,0,0,1,1.8-3.95,14.492,14.492,0,0,1,1.841-1.716,15.286,15.286,0,0,1,3.1-1.788,17.341,17.341,0,0,0-3.491.38,3.937,3.937,0,0,0-2.251,1.161c-.844.885-.888,2.4-.992,3.536a16.151,16.151,0,0,0-.016,2.585C1292.684,538.32,1292.689,538.25,1292.7,538.182Z" transform="translate(-1290.816 -528.91)" fill="#f5f5f5"/>
      <g id="Group_8029" data-name="Group 8029" transform="translate(5.921 13.708)">
        <path id="Path_36220" data-name="Path 36220" d="M1298.794,548.926c-.364-1.469,1.216-2.53,1.054-3.951-.117-1.03-1.032-1.2-2.551-1.164a1.171,1.171,0,0,1,.918,1.164c-.028,1.444-1.372,2.482-1,3.951.189.756,1.312.756,2.141.567A.811.811,0,0,1,1298.794,548.926Z" transform="translate(-1297.147 -543.807)" fill="#f5f5f5"/>
      </g>
    </g>
  </g>
</svg>
