<svg xmlns="http://www.w3.org/2000/svg" width="17" height="17" viewBox="0 0 17 17">
  <g id="Group_15723" data-name="Group 15723" transform="translate(-1 -1)">
    <circle id="Circle_blue" data-name="Circle blue" cx="8.5" cy="8.5" r="8.5" transform="translate(1 1)" fill="#fff" opacity="0"/>
    <path id="Path_38422" data-name="Path 38422" d="M6.024.027A.387.387,0,0,0,5.893,0a.38.38,0,0,0-.079.016C5.709.01,5.606,0,5.5,0a5.518,5.518,0,1,0,.524.027ZM9.968,4.006,8.881,4.55A1.113,1.113,0,0,1,7.6,4.418.716.716,0,0,1,7.464,4a1.5,1.5,0,0,0-.44-1.063L6.5,2.405a.715.715,0,0,1-.21-.508V.857A4.723,4.723,0,0,1,9.968,4.006ZM2.075,2.27l.266,1.6a1.056,1.056,0,0,0,.138.376l.736,1.227a.285.285,0,0,1-.117.4l-.565.283a.286.286,0,0,1-.285-.018l-.389-.259A1.073,1.073,0,0,0,.8,5.8C.795,5.7.786,5.6.786,5.5A4.693,4.693,0,0,1,2.075,2.27Zm3.817,7.924V9.667a.239.239,0,0,1,.238-.238h.092a1.022,1.022,0,0,0,.971-.7.238.238,0,0,1,.144-.148.234.234,0,0,1,.205.019l.928.557A4.688,4.688,0,0,1,5.893,10.194ZM9.053,8.588,7.948,7.925a1.024,1.024,0,0,0-1.5.554.238.238,0,0,1-.226.163H6.131A1.026,1.026,0,0,0,5.107,9.667v.527A4.718,4.718,0,0,1,.933,6.65a.394.394,0,0,0,.13-.086.287.287,0,0,1,.359-.035l.389.259a1.075,1.075,0,0,0,1.073.067l.565-.282a1.071,1.071,0,0,0,.439-1.509L3.153,3.837a.275.275,0,0,1-.037-.1L2.771,1.663A4.682,4.682,0,0,1,5.5.786V1.9a1.5,1.5,0,0,0,.44,1.063l.528.527A.72.72,0,0,1,6.679,4a1.489,1.489,0,0,0,.308.9,1.6,1.6,0,0,0,1.28.556,2.4,2.4,0,0,0,.945-.2l.944-.472a4.613,4.613,0,0,1-1.1,3.8Z" transform="translate(4 4)" fill="#1a2552" stroke="#1a2552" stroke-width="0.2"/>
  </g>
</svg>
