<svg xmlns="http://www.w3.org/2000/svg" width="20" height="18" viewBox="0 0 20 18">
  <path id="Path_38552" data-name="Path 38552" d="M19,5.25H15.325a1.239,1.239,0,0,1-.4-.064L9.545,3.391a2.738,2.738,0,0,0-.87-.141H5A2.752,2.752,0,0,0,2.25,6V16A2.752,2.752,0,0,0,5,18.75H8.675a1.239,1.239,0,0,1,.4.064l5.384,1.8a2.738,2.738,0,0,0,.87.141H19A2.752,2.752,0,0,0,21.75,18V8A2.752,2.752,0,0,0,19,5.25ZM20.25,18A1.252,1.252,0,0,1,19,19.25H15.325a1.239,1.239,0,0,1-.4-.064L9.75,17.459V8a.75.75,0,0,0-1.5,0v9.25H5A1.252,1.252,0,0,1,3.75,16V6A1.252,1.252,0,0,1,5,4.75H8.675a1.239,1.239,0,0,1,.4.064L14.25,6.541V16a.75.75,0,0,0,1.5,0V6.75H19A1.252,1.252,0,0,1,20.25,8Z" transform="translate(-2 -3)" fill="#1a2552" stroke="#1a2552" stroke-width="0.5"/>
</svg>
