<svg xmlns="http://www.w3.org/2000/svg" width="19" height="19" viewBox="0 0 19 19">
  <g id="Group_15696" data-name="Group 15696" transform="translate(0 0.173)">
    <g id="Group_15399" data-name="Group 15399">
      <circle id="Ellipse_3113" data-name="Ellipse 3113" cx="9.5" cy="9.5" r="9.5" transform="translate(0 -0.173)" fill="#fff" opacity="0"/>
      <path id="Tracé_15341" data-name="Tracé 15341" d="M-828.894-772.039a3.37,3.37,0,0,1-.035-.744c.053-.617.088-1.252.137-1.8a6.222,6.222,0,0,0-.649,6.6,5.33,5.33,0,0,0,4.8,2.848,5.525,5.525,0,0,0,5.027-5.946,5.839,5.839,0,0,0-.068-.586,7.669,7.669,0,0,0-2.226-4.01c-.484-.5-.929-.961-1.4-1.433-.491-.49-1-.979-1.49-1.524a4.763,4.763,0,0,0,.21,3.647l.21.435c.105.218.21.436.315.672a3.128,3.128,0,0,1-.1,2.685,2.414,2.414,0,0,1-2.54,1.234,2.675,2.675,0,0,1-2.191-2.086Z" transform="translate(834.475 781.976)" fill="none" stroke="#1a2552" stroke-linecap="round" stroke-linejoin="round" stroke-width="1.5"/>
    </g>
  </g>
</svg>