<svg xmlns="http://www.w3.org/2000/svg" xmlns:xlink="http://www.w3.org/1999/xlink" width="40" height="40" viewBox="0 0 40 40">
  <defs>
    <linearGradient id="linear-gradient" x1="0.5" y1="0.005" x2="0.5" y2="1.005" gradientUnits="objectBoundingBox">
      <stop offset="0" stop-color="#0857e0"/>
      <stop offset="1" stop-color="#1a2552"/>
    </linearGradient>
  </defs>
  <g id="Group_14602" data-name="Group 14602" transform="translate(0 0)">
    <circle id="Ellipse_639" data-name="Ellipse 639" cx="20" cy="20" r="20" transform="translate(0 0)" fill="url(#linear-gradient)"/>
    <g id="Group_8033" data-name="Group 8033" transform="translate(10.455 9.545)">
      <g id="Path_36217" data-name="Path 36217">
        <path id="Path_37793" data-name="Path 37793" d="M1250.761,535.826a1.722,1.722,0,0,0-.716-.072c-.827.091-2.292.7-2.434-.624-.162-1.513,1.421-2.636,1.054-4.2-.253-1.075-2.17-.714-2.831-.355-1.042.565-1.578,2.032-2.056,3.027a6,6,0,0,1-2.387,3.062,4.945,4.945,0,0,1-1.711.525,8.93,8.93,0,0,1-1.394.011v8.559a9.576,9.576,0,0,1,1.553.165c.619.137.909.765,1.382,1.124a3.488,3.488,0,0,0,1.42.643,16.165,16.165,0,0,0,3.4.2,17.333,17.333,0,0,0,3.491-.38,3.939,3.939,0,0,0,2.251-1.157c.844-.885.888-2.4.992-3.536a16.6,16.6,0,0,0-.032-3.159A6.465,6.465,0,0,0,1252.1,537,2.531,2.531,0,0,0,1250.761,535.826Z" transform="translate(-1236.467 -528.393)" fill="none"/>
        <path id="Path_37794" data-name="Path 37794" d="M1247.225,530.029a3.72,3.72,0,0,0-1.572.359c-1.043.565-1.578,2.033-2.056,3.028a6.006,6.006,0,0,1-2.388,3.062,4.98,4.98,0,0,1-1.711.525,9.011,9.011,0,0,1-1.394.011v8.559a9.448,9.448,0,0,1,1.554.165c.619.137.91.765,1.381,1.124a3.5,3.5,0,0,0,1.42.643,16.143,16.143,0,0,0,3.4.2,17.33,17.33,0,0,0,3.491-.379,3.946,3.946,0,0,0,2.251-1.157c.844-.885.888-2.4.992-3.536a16.676,16.676,0,0,0-.032-3.16,6.469,6.469,0,0,0-.635-2.651,2.531,2.531,0,0,0-1.342-1.18,1.738,1.738,0,0,0-.716-.072c-.827.091-2.292.7-2.434-.623-.163-1.513,1.421-2.641,1.054-4.2-.125-.537-.666-.715-1.258-.715m0-1.818a2.857,2.857,0,0,1,3.028,2.117,4.878,4.878,0,0,1-.639,3.443l.051-.006a3.53,3.53,0,0,1,1.469.148,4.318,4.318,0,0,1,2.358,1.995,7.867,7.867,0,0,1,.866,3.307l.008.08a18.364,18.364,0,0,1,.033,3.5c-.01.106-.019.215-.028.327a6.747,6.747,0,0,1-1.46,4.3,5.776,5.776,0,0,1-3.19,1.681,19.257,19.257,0,0,1-3.855.418l-.188,0-.587,0a14.6,14.6,0,0,1-3-.245,5.3,5.3,0,0,1-2.15-.976,4.977,4.977,0,0,1-.707-.681c-.041-.045-.092-.1-.134-.146a10.224,10.224,0,0,0-1.084-.093,1.817,1.817,0,0,1-1.726-1.815v-8.559a1.819,1.819,0,0,1,2.127-1.792h.022c.29,0,.737-.019.874-.028a3.127,3.127,0,0,0,1.048-.322c.667-.354,1.035-1.067,1.581-2.2l.02-.042c.063-.131.131-.278.2-.435a6.773,6.773,0,0,1,2.627-3.4A5.512,5.512,0,0,1,1247.225,528.211Z" transform="translate(-1236.285 -528.211)" fill="#1a2552"/>
      </g>
      <path id="Path_36218" data-name="Path 36218" d="M1250.761,535.826a1.722,1.722,0,0,0-.716-.072c-.827.091-2.292.7-2.434-.624-.162-1.513,1.421-2.636,1.054-4.2-.253-1.075-2.17-.714-2.831-.355-1.042.565-1.578,2.032-2.056,3.027a6,6,0,0,1-2.387,3.062,4.945,4.945,0,0,1-1.711.525,8.93,8.93,0,0,1-1.394.011v8.559a9.576,9.576,0,0,1,1.553.165c.619.137.909.765,1.382,1.124a3.488,3.488,0,0,0,1.42.643,16.165,16.165,0,0,0,3.4.2,17.333,17.333,0,0,0,3.491-.38,3.939,3.939,0,0,0,2.251-1.157c.844-.885.888-2.4.992-3.536a16.6,16.6,0,0,0-.032-3.159A6.465,6.465,0,0,0,1252.1,537,2.531,2.531,0,0,0,1250.761,535.826Z" transform="translate(-1236.467 -528.393)" fill="#fff"/>
      <path id="Path_36219" data-name="Path 36219" d="M1252.771,541.444c-.1,1.138-.147,2.652-.992,3.536a3.944,3.944,0,0,1-2.251,1.157,17.466,17.466,0,0,1-3.491.38,16.222,16.222,0,0,1-3.4-.2,3.512,3.512,0,0,1-1.42-.643c-.471-.359-.763-.986-1.382-1.124a9.381,9.381,0,0,0-1.553-.165v2.375a9.381,9.381,0,0,1,1.553.165c.619.137.909.765,1.382,1.124a3.513,3.513,0,0,0,1.42.643,16.227,16.227,0,0,0,3.4.2,17.47,17.47,0,0,0,3.491-.38,3.945,3.945,0,0,0,2.251-1.157c.844-.885.888-2.4.992-3.536a16.152,16.152,0,0,0,.016-2.585C1252.781,541.3,1252.777,541.374,1252.771,541.444Z" transform="translate(-1236.467 -529.395)" fill="#f1f1f1"/>
      <g id="Group_8029" data-name="Group 8029" transform="translate(9.545 1.818)">
        <path id="Path_36220" data-name="Path 36220" d="M1247.851,530.883c.364,1.47-1.216,2.53-1.054,3.951.117,1.03,1.032,1.2,2.551,1.164a1.172,1.172,0,0,1-.918-1.164c.028-1.444,1.372-2.482,1-3.951-.189-.756-1.312-.756-2.141-.567A.811.811,0,0,1,1247.851,530.883Z" transform="translate(-1246.785 -530.21)" fill="#f1f1f1"/>
      </g>
    </g>
  </g>
</svg>
