<svg xmlns="http://www.w3.org/2000/svg" xmlns:xlink="http://www.w3.org/1999/xlink" width="40" height="40" viewBox="0 0 40 40">
  <defs>
    <linearGradient id="linear-gradient" x1="0.5" y1="0.005" x2="0.5" y2="1.005" gradientUnits="objectBoundingBox">
      <stop offset="0" stop-color="#ffe100"/>
      <stop offset="1" stop-color="#f98900"/>
    </linearGradient>
    <linearGradient id="linear-gradient-2" x1="0.5" y1="1" x2="0.5" y2="0.154" gradientUnits="objectBoundingBox">
      <stop offset="0" stop-color="#69101b"/>
      <stop offset="1" stop-color="#400a10"/>
    </linearGradient>
    <linearGradient id="linear-gradient-3" x1="0.54" y1="-0.009" x2="0.516" y2="0.457" gradientUnits="objectBoundingBox">
      <stop offset="0.005" stop-color="#414d4d"/>
      <stop offset="0.206" stop-color="#394444"/>
      <stop offset="0.522" stop-color="#262d2d"/>
      <stop offset="0.914" stop-color="#070909"/>
      <stop offset="1"/>
    </linearGradient>
    <linearGradient id="linear-gradient-4" x1="0.71" y1="-0.049" x2="0.557" y2="0.401" xlink:href="#linear-gradient-3"/>
    <linearGradient id="linear-gradient-5" x1="110.77" y1="-0.009" x2="110.745" y2="0.457" xlink:href="#linear-gradient-3"/>
    <linearGradient id="linear-gradient-6" x1="0.71" y1="-0.049" x2="0.557" y2="0.401" xlink:href="#linear-gradient-3"/>
  </defs>
  <g id="Group_14587" data-name="Group 14587" transform="translate(0 0)">
    <circle id="Ellipse_638" data-name="Ellipse 638" cx="20" cy="20" r="20" transform="translate(0 0)" fill="url(#linear-gradient)"/>
    <g id="Group_14598" data-name="Group 14598" transform="translate(5.136 8.693)">
      <path id="Path_38136" data-name="Path 38136" d="M-196.974-142.739a5.674,5.674,0,0,0-5.4,2.026,16.252,16.252,0,0,1,9.458,2.027A5.393,5.393,0,0,0-196.974-142.739Z" transform="translate(222.647 142.847)" fill="#ed8d06"/>
      <path id="Path_38137" data-name="Path 38137" d="M-220.62-142.739a5.674,5.674,0,0,1,5.405,2.026,16.256,16.256,0,0,0-9.459,2.027A5.394,5.394,0,0,1-220.62-142.739Z" transform="translate(224.674 142.847)" fill="#ed8d06"/>
      <path id="Path_38138" data-name="Path 38138" d="M-203.6-118.88a.875.875,0,0,0-.178-.532c-.606-.8-2.722-3.251-5.9-3.251s-5.3,2.451-5.9,3.251a.876.876,0,0,0-.179.532.874.874,0,0,0,.075.34.876.876,0,0,0-.075.336,1.027,1.027,0,0,0,1.571.8c.741-.434,1.623-.924,2.409-1.353a4.441,4.441,0,0,1,4.2,0c.786.429,1.668.919,2.409,1.353a1.026,1.026,0,0,0,1.57-.8.86.86,0,0,0-.075-.336A.857.857,0,0,0-203.6-118.88Z" transform="translate(223.863 141.012)" fill="#ed8d06"/>
      <path id="Path_38139" data-name="Path 38139" d="M-203.6-118.136a.878.878,0,0,0-.178-.533c-.606-.8-2.722-3.251-5.9-3.251s-5.3,2.451-5.9,3.251a.879.879,0,0,0-.179.533.873.873,0,0,0,.075.339.876.876,0,0,0-.075.336,1.027,1.027,0,0,0,1.571.8c.741-.434,1.623-.924,2.409-1.353a4.441,4.441,0,0,1,4.2,0c.786.429,1.668.919,2.409,1.353a1.026,1.026,0,0,0,1.57-.8.86.86,0,0,0-.075-.336A.857.857,0,0,0-203.6-118.136Z" transform="translate(223.863 140.945)" fill="#f9bf06"/>
      <path id="Path_38140" data-name="Path 38140" d="M-203.773-118.669c-.606-.8-2.722-3.251-5.9-3.251s-5.3,2.451-5.9,3.251a.879.879,0,0,0-.179.533,1.027,1.027,0,0,0,1.571.8c.741-.434,1.623-.924,2.409-1.353a4.441,4.441,0,0,1,4.2,0c.786.429,1.668.919,2.409,1.353a1.026,1.026,0,0,0,1.57-.8A.878.878,0,0,0-203.773-118.669Z" transform="translate(223.863 140.945)" fill="url(#linear-gradient-2)"/>
      <path id="Path_38141" data-name="Path 38141" d="M-192.921-138.685a9.387,9.387,0,0,0-9.458-2.027,5.674,5.674,0,0,1,5.4-2.026A5.393,5.393,0,0,1-192.921-138.685Z" transform="translate(222.647 142.847)" fill="url(#linear-gradient-3)"/>
      <g id="Group_14597" data-name="Group 14597" transform="translate(0.676 8.216)">
        <path id="Path_38142" data-name="Path 38142" d="M-194.407-131.108a2.7,2.7,0,0,0-2.7-2.7c-3.377,0-6.755,2.7-6.755,2.7s.624-.176,1.513-.337a14.582,14.582,0,0,0-1.513,1.013,17.473,17.473,0,0,1,4.062-.6c0,.077.014.152.023.227a2.475,2.475,0,0,0-.031.369,2.7,2.7,0,0,0,2.7,2.7,2.7,2.7,0,0,0,2.7-2.7,2.754,2.754,0,0,0-.034-.337A2.751,2.751,0,0,0-194.407-131.108Z" transform="translate(222.106 133.81)" fill="#ed8d06"/>
        <path id="Path_38143" data-name="Path 38143" d="M-217.175-133.81c-3.378,0-6.755,2.7-6.755,2.7s.624-.176,1.512-.337a14.618,14.618,0,0,0-1.512,1.013,17.47,17.47,0,0,1,4.061-.6c0,.077.015.152.024.227a2.477,2.477,0,0,0-.031.369,2.7,2.7,0,0,0,2.7,2.7,2.7,2.7,0,0,0,2.7-2.7,2.585,2.585,0,0,0-.035-.337,2.583,2.583,0,0,0,.035-.338A2.7,2.7,0,0,0-217.175-133.81Z" transform="translate(223.93 133.81)" fill="#ed8d06"/>
      </g>
      <path id="Path_38144" data-name="Path 38144" d="M-197.11-133.81c-3.377,0-6.755,2.7-6.755,2.7a17.345,17.345,0,0,1,4.125-.6,2.7,2.7,0,0,0-.071.6,2.7,2.7,0,0,0,2.7,2.7,2.7,2.7,0,0,0,2.7-2.7A2.7,2.7,0,0,0-197.11-133.81Z" transform="translate(222.782 142.026)" fill="url(#linear-gradient-4)"/>
      <path id="Path_38145" data-name="Path 38145" d="M-224.674-138.685a9.389,9.389,0,0,1,9.459-2.027,5.674,5.674,0,0,0-5.405-2.026A5.394,5.394,0,0,0-224.674-138.685Z" transform="translate(224.674 142.847)" fill="url(#linear-gradient-5)"/>
      <path id="Path_38146" data-name="Path 38146" d="M-217.175-133.81c-3.378,0-6.755,2.7-6.755,2.7a17.345,17.345,0,0,1,4.125-.6,2.7,2.7,0,0,0-.071.6,2.7,2.7,0,0,0,2.7,2.7,2.7,2.7,0,0,0,2.7-2.7A2.7,2.7,0,0,0-217.175-133.81Z" transform="translate(224.606 142.026)" fill="url(#linear-gradient-6)"/>
    </g>
  </g>
</svg>
