<svg xmlns="http://www.w3.org/2000/svg" width="41" height="41" viewBox="0 0 41 41">
  <g id="Add_image_icon" data-name="Add image icon" transform="translate(0.5 0.5)">
    <circle id="Circle_blue" data-name="Circle blue" cx="20" cy="20" r="20" fill="#fff" stroke="#f7f8f9" stroke-width="1"/>
    <g id="Group_15741" data-name="Group 15741" transform="translate(10.25 10.25)">
      <path id="Path_38563" data-name="Path 38563" d="M1583.25,529.249h-8a5.757,5.757,0,0,0-5.75,5.75v8a5.757,5.757,0,0,0,5.75,5.75h8A5.757,5.757,0,0,0,1589,543v-8A5.757,5.757,0,0,0,1583.25,529.249ZM1587.5,543a4.255,4.255,0,0,1-4.25,4.25h-8A4.255,4.255,0,0,1,1571,543v-8a4.255,4.255,0,0,1,4.25-4.25h8a4.255,4.255,0,0,1,4.25,4.25Z" transform="translate(-1569.5 -529.249)" fill="#1a2552" stroke="#1a2552" stroke-width="0.5"/>
      <path id="Path_38564" data-name="Path 38564" d="M1584.72,541.005l-.908.907a.938.938,0,0,1-1.269.058l-3.784-3.154a2.436,2.436,0,0,0-3.03-.078l-2.929,2.2a.75.75,0,0,0,.9,1.2l2.929-2.2a.94.94,0,0,1,1.169.031l3.784,3.153a2.432,2.432,0,0,0,3.291-.149l.907-.908a.75.75,0,0,0-1.06-1.06Z" transform="translate(-1569.5 -529.249)" fill="#1a2552" stroke="#1a2552" stroke-width="0.5"/>
      <g id="Path_38565" data-name="Path 38565" transform="translate(-1569.5 -529.249)" fill="#1a2552" stroke-linejoin="round">
        <path d="M 1582.75 537.5 C 1581.647216796875 537.5 1580.75 536.602783203125 1580.75 535.5 C 1580.75 534.397216796875 1581.647216796875 533.5 1582.75 533.5 C 1583.852783203125 533.5 1584.75 534.397216796875 1584.75 535.5 C 1584.75 536.602783203125 1583.852783203125 537.5 1582.75 537.5 Z M 1582.75 534.5 C 1582.198608398438 534.5 1581.75 534.9486083984375 1581.75 535.5 C 1581.75 536.0513916015625 1582.198608398438 536.5 1582.75 536.5 C 1583.301391601562 536.5 1583.75 536.0513916015625 1583.75 535.5 C 1583.75 534.9486083984375 1583.301391601562 534.5 1582.75 534.5 Z" stroke="none"/>
        <path d="M 1582.75 537.25 C 1583.714965820312 537.25 1584.5 536.4649658203125 1584.5 535.5 C 1584.5 534.5350341796875 1583.714965820312 533.75 1582.75 533.75 C 1581.785034179688 533.75 1581 534.5350341796875 1581 535.5 C 1581 536.4649658203125 1581.785034179688 537.25 1582.75 537.25 M 1582.75 534.25 C 1583.439208984375 534.25 1584 534.8107299804688 1584 535.5 C 1584 536.1892700195312 1583.439208984375 536.75 1582.75 536.75 C 1582.060791015625 536.75 1581.5 536.1892700195312 1581.5 535.5 C 1581.5 534.8107299804688 1582.060791015625 534.25 1582.75 534.25 M 1582.75 537.75 C 1581.510009765625 537.75 1580.5 536.7410278320312 1580.5 535.5 C 1580.5 534.2589721679688 1581.510009765625 533.25 1582.75 533.25 C 1583.989990234375 533.25 1585 534.2589721679688 1585 535.5 C 1585 536.7410278320312 1583.989990234375 537.75 1582.75 537.75 Z M 1582.75 534.75 C 1582.337036132812 534.75 1582 535.0859985351562 1582 535.5 C 1582 535.9140014648438 1582.337036132812 536.25 1582.75 536.25 C 1583.162963867188 536.25 1583.5 535.9140014648438 1583.5 535.5 C 1583.5 535.0859985351562 1583.162963867188 534.75 1582.75 534.75 Z" stroke="none" fill="#1a2552"/>
      </g>
    </g>
  </g>
</svg>
